<svg width="16" height="16" viewBox="0 0 16 16" fill="none" xmlns="http://www.w3.org/2000/svg">
<path d="M0.630205 7.09065C0.618989 7.12132 0.623453 7.15553 0.642162 7.18229C0.660871 7.20906 0.691467 7.225 0.724121 7.225H1.89662C1.93906 7.225 1.97687 7.19822 1.99095 7.15819L2.4662 5.8075H4.71288L5.17961 7.15767C5.19354 7.19797 5.23149 7.225 5.27412 7.225H6.46412C6.49677 7.225 6.52737 7.20906 6.54608 7.18229C6.56479 7.15553 6.56925 7.12132 6.55804 7.09065L4.31804 0.965653C4.30362 0.926224 4.2661 0.9 4.22412 0.9H2.96412C2.92214 0.9 2.88462 0.926224 2.8702 0.965653L0.630205 7.09065ZM2.84218 4.7325L3.58584 2.58989L4.33685 4.7325H2.84218Z" fill="#ACB2C1" stroke="#ACB2C1" stroke-width="0.2" stroke-linejoin="round"/>
<path d="M1.42374 15C1.42374 15.0552 1.46851 15.1 1.52374 15.1H5.65374C5.70897 15.1 5.75374 15.0552 5.75374 15V14.0638C5.75374 14.0085 5.70897 13.9638 5.65374 13.9638H2.98621L5.71991 9.78727C5.73057 9.77099 5.73624 9.75196 5.73624 9.7325V8.875C5.73624 8.81977 5.69147 8.775 5.63624 8.775H1.54999C1.49476 8.775 1.44999 8.81977 1.44999 8.875V9.81125C1.44999 9.86648 1.49476 9.91125 1.54999 9.91125H4.1569L1.43992 14.088C1.42936 14.1042 1.42374 14.1231 1.42374 14.1425V15Z" fill="#ACB2C1" stroke="#ACB2C1" stroke-width="0.2" stroke-linejoin="round"/>
<path d="M14.8158 11.0289L13.1711 12.6736L13.1704 1.68085C13.1704 1.30488 12.8662 1 12.4895 1C12.1136 1 11.8087 1.3042 11.8087 1.68085V12.6724L10.164 11.0277C9.89807 10.7618 9.46739 10.7618 9.19943 11.0277C8.93352 11.2936 8.93352 11.7256 9.19943 11.9922L12.0069 14.799C12.0698 14.8619 12.1471 14.9125 12.2312 14.948C12.2346 14.9501 12.238 14.9501 12.2414 14.9515C12.318 14.9822 12.4021 15 12.4896 15C12.5771 15 12.6611 14.9822 12.7384 14.9508C12.7418 14.9487 12.7452 14.9487 12.7486 14.9474C12.8327 14.9125 12.91 14.8619 12.9729 14.7983L15.7797 11.9915C16.0456 11.7256 16.0456 11.2936 15.7797 11.027C15.5138 10.7631 15.0817 10.7631 14.8158 11.029L14.8158 11.0289Z" fill="#ACB2C1"/>
</svg>
