<?xml version="1.0" encoding="UTF-8" standalone="no"?>
<!DOCTYPE svg PUBLIC "-//W3C//DTD SVG 1.1//EN" "http://www.w3.org/Graphics/SVG/1.1/DTD/svg11.dtd">
<svg width="100%" height="100%" viewBox="0 0 23 21" version="1.1" xmlns="http://www.w3.org/2000/svg" xmlns:xlink="http://www.w3.org/1999/xlink" xml:space="preserve" xmlns:serif="http://www.serif.com/" style="fill-rule:evenodd;clip-rule:evenodd;">
    <path d="M12.11,2.724L12.11,2.725C11.948,2.889 11.795,3.062 11.649,3.249C10.335,1.579 8.196,0.731 6.081,1.117C4.291,1.442 2.883,2.427 1.903,4.037C0.523,6.303 0.405,8.502 1.572,10.561C2.189,11.65 2.989,12.71 4.015,13.802L4.015,13.803C5.894,15.799 8.114,17.692 11.005,19.757L11.005,19.757C11.204,19.9 11.422,19.975 11.651,19.975C11.999,19.975 12.237,19.799 12.345,19.718L12.347,19.717C12.347,19.717 12.347,19.717 12.347,19.717C14.955,17.854 17.006,16.136 18.798,14.308C19.799,13.288 20.94,12.03 21.776,10.454C22.132,9.782 22.548,8.865 22.523,7.812L22.523,7.812C22.469,5.576 21.579,3.728 19.881,2.324C18.872,1.488 17.574,1.029 16.23,1.029C14.68,1.029 13.176,1.646 12.11,2.724Z" style="fill:url(#_Linear1);fill-rule:nonzero;stroke:white;stroke-width:0.2px;"/>
    <defs>
        <linearGradient id="_Linear1" x1="0" y1="0" x2="1" y2="0" gradientUnits="userSpaceOnUse" gradientTransform="matrix(14.3361,11.6147,-10.1199,12.4912,2.5915,3.0688)"><stop offset="0" style="stop-color:rgb(255,153,114);stop-opacity:1"/><stop offset="1" style="stop-color:rgb(255,0,45);stop-opacity:1"/></linearGradient>
    </defs>
</svg>
